<?xml version="1.0" encoding="utf-8"?>
<!-- Generator: Adobe Illustrator 20.1.0, SVG Export Plug-In . SVG Version: 6.00 Build 0)  -->
<svg version="1.1" id="Layer_1" xmlns="http://www.w3.org/2000/svg" xmlns:xlink="http://www.w3.org/1999/xlink" x="0px" y="0px"
	 viewBox="0 0 72 72" style="enable-background:new 0 0 72 72;" xml:space="preserve">
<style type="text/css">
	.st0{fill:#4D4D4D;}
</style>
<g>
	<path class="st0" d="M4.5,43.7c-0.6-0.8-1.1-1.5-1.6-2.3C17.7,29,39.6,29,54.3,41.4c-0.5,0.7-1,1.5-1.4,2c0.9,1.6,2.1,3,2.6,4.6
		c1.6,5-2.1,10-7.2,10c-8.7,0-17.3,0-26,0c-4.3,0-8.6,0-12.9,0c-3.7,0-6.6-1.9-7.7-5.1C0.6,49.6,1.6,46.3,4.5,43.7z M50.9,46.2
		c-0.6,0.7-1.1,1.5-1.6,2.2c-13.8-9.7-27.5-9.7-41.2,0c-0.5-0.7-1.1-1.4-1.8-2.3c-0.5,0.6-1,1-1.3,1.5c-1,1.6-1,3.2-0.1,4.9
		c0.9,1.7,2.3,2.5,4.2,2.5c12.6,0,25.2,0,37.7,0c0.7,0,1.4,0,2.1,0c2-0.1,3.7-1.6,4.1-3.6C53.4,49.3,52.6,47.3,50.9,46.2z"/>
	<path class="st0" d="M57.9,47.8c-0.3-0.8-0.7-1.7-1-2.7c2-0.9,3.4-2.4,3.4-4.8c0-1.7-0.7-3-2.1-4c-0.6,0.8-1.2,1.5-1.6,2.1
		c-14.4-8.7-29.2-11.4-45.1-5c-0.4-0.5-0.9-1.2-1.3-1.8c14.9-12.5,36.8-12.3,51.4,0c-0.5,0.7-1,1.5-1.5,2.2
		C64.7,39.2,63.7,45.9,57.9,47.8z"/>
	<path class="st0" d="M17.4,21.9c13.6-11.4,34.9-13.2,51.3,0c-0.5,0.7-1,1.5-1.6,2.3c2.7,2.4,3.9,5.3,2.8,8.9
		c-0.7,2.4-2.5,4.2-4.8,5c-0.3-0.9-0.7-1.7-1-2.6c4-2.4,4.5-6.3,1.2-8.7c-0.6,0.7-1.1,1.5-1.5,2c-3-1.6-5.7-3.5-8.7-4.6
		c-6.9-2.6-14-4.4-21.5-3.9c-4.6,0.3-9,1.3-13.3,3C18.4,23.9,18.3,23.8,17.4,21.9z"/>
</g>
</svg>
