<?xml version="1.0" encoding="utf-8"?>
<!-- Generator: Adobe Illustrator 20.1.0, SVG Export Plug-In . SVG Version: 6.00 Build 0)  -->
<svg version="1.1" xmlns="http://www.w3.org/2000/svg" xmlns:xlink="http://www.w3.org/1999/xlink" x="0px" y="0px"
	 viewBox="0 0 72 72" style="enable-background:new 0 0 72 72;" xml:space="preserve">
<style type="text/css">
	.st0{fill:#4D4D4D;}
</style>
<g id="bottle">
	<g>
		<path class="st0" d="M41,40.5c-0.3,2.8-1.1,5.2-2.9,7.3c-2.7,3.1-6.3,4.4-10.3,4.6c-1.3,0.1-2.1-0.7-2.1-2c0-2,0-3.9,0-5.9
			c0-0.3,0-0.7,0-1.1c-4.1,1.2-9.1,5.4-10.8,9.4c1.5,1.2,3.2,1.7,5,2c4.2,0.7,8.3,0.2,12.4-0.5c2.1-0.4,4.2-1,6.2-1.5
			c1.6-0.4,2.7,0.4,2.7,2.1c0,5,0,10,0,14.9c0,1.5-0.8,2.3-2.2,2.2C24,71.7,10.7,62,7.6,46.7c-1.1-5.4-0.9-10.8-0.3-16.2
			c0.6-4.7,1.7-9.3,3.7-13.6C15.6,7.6,22.9,2.1,33.1,0.7c2-0.3,4.1-0.2,6.1-0.2c1.3,0,1.9,0.7,2,2c0,1.8,0,3.6,0,5.1
			c2.9,0.6,5.7,1,8.4,1.9c6.2,1.9,11,5.6,14.6,11c0.2,0.4,0.6,0.8,0.9,1c4.6,2.5,5.6,6.6,2.5,10.8c-0.4,0.6-0.9,1.3-1.5,1.7
			c-1.2,0.8-1.5,1.8-1,3.2c0.2,0.5,0.2,1.1,0.2,1.6c0,0.9-0.6,1.5-1.5,1.7c-0.5,0.1-1,0.1-1.5,0.1c-6.6,0-13.2,0-19.9,0
			C41.9,40.5,41.5,40.5,41,40.5z M30.7,37.7c-4.6-3.9-5.5-8.7-4.7-13.5c0.9-6,7.1-11.2,13.1-11.1c1.1,0,1.9,0.7,2,1.7
			c0.1,1.1-0.5,1.8-1.6,2c-1.1,0.3-2.3,0.5-3.4,0.9c-4.8,1.7-7.2,6.1-6.4,11.2c0.8,4.6,4.8,7.9,9.6,7.9c6.9,0,13.8,0,20.7,0
			c0.3,0,0.7,0,1-0.1c-0.3-2.2-2.1-4.6-4.2-5.9c-3.2,2.2-4.7,2.8-6.9,2.9c-6.6,0.3-12.9-6-12.6-12.6c0.1-1.1,0.9-1.9,2.1-1.8
			c1,0.1,1.4,0.7,1.7,1.7c0.5,1.7,0.9,3.6,1.8,5.1c2.5,4.4,7.8,5.2,11.5,1.7c2.1-2,3.9-4.1,5.9-6.2C52.9,11,36.6,8.7,24.7,15.4
			C11.3,22.9,8.1,37.7,12.5,49.1C16.8,42.6,23.2,39.4,30.7,37.7z M17.6,58.3c4.3,5.8,12.7,9.7,19.6,9.7c0-3.6,0-7.2,0-10.9
			C30.7,58.6,24.3,59.7,17.6,58.3z M37.4,4.2c-8.5-1-21.1,7-22.5,14.1C21,11.8,28.6,8.6,37.4,7.9C37.4,6.7,37.4,5.5,37.4,4.2z
			 M29.5,48.4c4.5-0.8,7.5-3.9,7.5-7.8c-2.4,0.4-4.7,0.9-7,1.3c-0.2,0-0.5,0.4-0.5,0.5C29.5,44.4,29.5,46.3,29.5,48.4z M63.1,31.6
			c1-1,2.1-2.1,2.5-3.7c0.2-1-0.5-2.1-1.7-2.8c-0.9-0.6-1.6-0.1-2.2,0.4c-0.8,0.7-1.4,1.5-2.1,2.3C60.7,29.1,61.9,30.3,63.1,31.6z"
			/>
		<path class="st0" d="M52.3,21.8c0,1.5-1.2,2.6-2.7,2.6c-1.5,0-2.7-1.2-2.7-2.8c0-1.5,1.2-2.6,2.7-2.6
			C51.2,19.1,52.4,20.3,52.3,21.8z"/>
	</g>
</g>
<g id="cup">
</g>
</svg>
