<?xml version="1.0" encoding="utf-8"?>
<!-- Generator: Adobe Illustrator 20.1.0, SVG Export Plug-In . SVG Version: 6.00 Build 0)  -->
<svg version="1.1" xmlns="http://www.w3.org/2000/svg" xmlns:xlink="http://www.w3.org/1999/xlink" x="0px" y="0px"
	 viewBox="0 0 72 63.1" style="enable-background:new 0 0 72 63.1;" xml:space="preserve">
<style type="text/css">
	.st0{fill:#4D4D4D;}
</style>
<g id="img">
	<g id="bottle">
		<g>
			<path class="st0" d="M69.5,29.2c0.1-0.3,0.3-0.7,0.4-1c2.5-5.6,0.6-12-4.6-15.2c-1.2-0.8-1.7-1.5-1.9-2.8
				c-0.8-5.3-4.9-9.3-10.6-10C48-0.4,43.1,2,40.7,6.8c-0.7,1.5-1.1,3.3-1.6,5.1c-1.6,0-2.3,0.3-3.2,1.5c-0.5,0.8-1,0.8-1.8,0.5
				c-2.4-1-4.5,0.3-4.8,2.8c-0.1,0.3-0.2,0.7-0.3,1.2c-0.6-1.5-1.1-2.7-1.6-3.9c-0.1-0.2,0-0.5,0.2-0.7c1.1-1.7,2.3-3.3,3.4-5
				c1.4-2.3,0.6-5.2-1.7-6.6c-2.3-1.3-5-0.7-6.6,1.6c-2.6,3.5-5.1,7.1-7.6,10.7c-0.1,0-0.1,0-0.2,0c-2.9-1.1-4.5-0.2-5.2,2.9
				c-0.1,0.6-0.5,0.9-1.1,1c-2.8,0.4-4,2.3-2.9,4.9c0.3,0.6,0.1,1-0.4,1.5c-0.5,0.4-1.2,0.9-1.3,1.5c-0.2,1-0.1,2.1-0.1,3.3
				c-0.1,0-0.4,0-0.4,0.1c-1.8,0.1-3,1.4-2.9,3.2c0.3,3.3,1.1,6.4,2.8,9.2c2.1,3.6,5.2,6.2,8.8,8.3c2,1.2,4.2,2.2,6.2,3.4
				c2.4,1.4,3,3.4,1.8,5.9c-1,2.1,0.3,4.1,2.7,4.1h26.9c2.8,0,4-1.9,2.8-4.4c-0.8-1.7-0.6-3.1,0.7-4.4c0.6-0.6,1.4-1.1,2.2-1.6
				c2.1-1.2,4.3-2.2,6.3-3.5c6-3.8,9.9-8.9,10.6-16.2C72.6,30.9,71.9,29.7,69.5,29.2z M67.5,23.1c0,1.9-0.6,3.5-1.7,5
				c-0.2,0.2-0.5,0.5-0.7,0.5h-4.5c0,0,0,0,0,0c-0.1,0-0.2,0-0.3,0h-0.1c0,0,0,0,0,0c-0.1,0-0.3,0-0.4,0h-0.1v0c-0.4,0-0.7,0-1.1,0
				c-0.3,0-0.7,0-1,0c0,0-0.1,0-0.1,0v0.1h-3.8c0.7-1.7,0.6-3.3-1-4.5c5.5-0.8,8.9-3.8,10.2-9.1C66,17,67.5,19.6,67.5,23.1z
				 M49.7,3.1c5-0.7,9.6,2.4,10.5,7.2c1,5.1-2.1,9.7-7.2,10.8c-0.3,0.1-0.6,0.1-1,0.2c0.3-3-1.8-3.6-4.2-4.1v0
				c-0.2-0.1-0.4-0.3-0.4-0.6c0-0.7-0.1-1.4-0.2-2.1c-1.3-1.2-2.7-1.4-4.3-0.6c-0.4,0.3-0.7,0-0.8-0.6C41.4,8.5,45,3.7,49.7,3.1z
				 M32.9,16.6c0.3-0.1,0.7-0.1,1,0c1.8,0.6,2.7,0.4,4-1.2c0.5-0.6,1-0.6,1.5,0c1.2,1.4,2.3,1.7,4.1,1.1c0.8-0.3,1.2-0.1,1.3,0.7
				c0.3,1.8,1.2,2.8,3,3c0.8,0.1,1,0.5,0.7,1.3c-0.7,2-0.4,2.7,1.1,4.1c0.7,0.6,0.6,1,0,1.6c-0.8,0.9-1.7,1-2.7,1H34.6
				c0.6-1.2,0.8-2.6-0.3-3.6c-1-0.9-1.3-1.7-0.8-3c0.4-0.9-0.1-1.9-0.8-2.6C32.2,18.6,32.3,16.9,32.9,16.6z M18.1,14.1
				c1.5-2,2.9-4.2,4.3-6.2c0.6-0.9,1.4-1.9,2-2.9c0.8-1.1,2.1-1.4,3.1-0.7c1.1,0.7,1.4,2.1,0.6,3.3c-2.1,3.1-4.3,6-6.4,9
				c-0.4,0.6-1.1,0.8-1.8,1.2c-1-0.2-1.7-0.6-2-1.4C17.6,15.7,17.6,14.9,18.1,14.1z M8.2,25.9c1.6-1.1,1.9-2.5,1.1-4.2
				c-0.3-0.5,0-1,0.6-1c1.9-0.2,2.9-1.1,3.1-3.1c0-0.3,0.3-0.5,0.6-0.6c0.6-0.2,1.7,0.5,2,1.1c0.5,1.5,1.6,2.5,3.2,2.8
				c1.6,0.3,3-0.2,4.1-1.5c0.6-0.7,1.1-1.5,1.6-2.3h0.3c0.1,0.4,0.2,0.8,0.3,1.2c0.3,1.2,1.1,2.1,2.3,2.3c1.4,0.3,1.5,0.3,1,1.7
				c-0.4,1.3-0.1,2.4,1,3.4c1,0.8,0.9,1,0,1.8c-0.6,0.7-1.4,0.8-2.3,0.8c-5.7,0-11.4-0.1-17,0c-1.1,0-1.6-0.9-2.3-1.5
				C7.8,26.7,7.9,26.1,8.2,25.9z M68.1,33.9c-0.4,5.4-5.1,9.4-9.5,12.3c-2.2,1.4-4.5,2.6-6.8,3.9c-2.2,1.3-3.8,3-3.6,5.8
				c0,1,0.4,1.9,0.7,3c-8.3,0-16.6,0-25-0.1c0.3-0.6,0.5-1.3,0.7-1.8c0.6-2.3-0.3-4.7-2.5-6.3c-1.1-0.7-2.2-1.3-3.3-1.8
				c-3.4-1.8-8.1-3.8-10.5-7c-1.9-2.4-2.7-5.3-2.9-8.5C5.4,33.3,5.8,33,6,32.9c0.1-0.1,0.4,0,0.5,0h60.5
				C68.2,32.9,68.2,32.9,68.1,33.9z"/>
		</g>
	</g>
	<g id="cup">
	</g>
	<path class="st0" d="M44,55.8h-7.2c-1.3,0-2.4-1.1-2.4-2.4v0c0-1.3,1.1-2.4,2.4-2.4H44c1.3,0,2.4,1.1,2.4,2.4v0
		C46.4,54.8,45.3,55.8,44,55.8z"/>
</g>
<g id="Layer_2">
</g>
</svg>
