<?xml version="1.0" encoding="utf-8"?>
<!-- Generator: Adobe Illustrator 20.1.0, SVG Export Plug-In . SVG Version: 6.00 Build 0)  -->
<svg version="1.1" xmlns="http://www.w3.org/2000/svg" xmlns:xlink="http://www.w3.org/1999/xlink" x="0px" y="0px"
	 viewBox="0 0 72 72" style="enable-background:new 0 0 72 72;" xml:space="preserve">
<style type="text/css">
	.st0{display:none;}
	.st1{display:inline;}
	.st2{fill:#4E4D4D;}
	.st3{fill:none;stroke:#727171;stroke-width:3;stroke-linecap:round;stroke-linejoin:round;stroke-miterlimit:10;}
</style>
<g id="bottle" class="st0">
	<g class="st1">
		<g>
			<path class="st2" d="M29,64.4c-7.1,0-9.9-1.8-10.8-2.6c-0.2-0.2-0.3-0.4-0.4-0.7c-0.3-1.8-3.2-17.8,3.5-31.6
				c0.2-0.5,5.3-11.2-2.5-24.3c-0.1-0.2-0.2-0.3-0.3-0.5c-0.3-0.4-0.6-0.8-0.3-1.6c0.1-0.1,0.2-0.2,0.3-0.3c0.1-0.1,0.3,0,0.4,0
				c0,0,1.9,0.9,9.9,0.9c8,0,9.7-0.6,9.9-0.7C38.9,3,39,2.9,39.2,2.9c0.2,0,0.3,0,0.4,0.2c0.2,0.2,0.4,0.9-0.1,1.7
				c-0.1,0.1-7.9,11.6-2.7,24.6l0.1,0.4c1.6,4,5.9,14.7,3.4,31.3c0,0,0,0,0,0c0,0.2-0.1,0.4-0.3,0.6C39.5,62.3,36.9,64.4,29,64.4z
				 M39.3,60.9c2.4-16.3-1.8-26.8-3.4-30.7l-0.1-0.4c-5.3-13.3,2.5-25.1,2.8-25.6c-1.9,0.5-6.1,0.6-9.6,0.6c-5.8,0-8.5-0.4-9.6-0.7
				c0,0,0.1,0.1,0.1,0.2c0.1,0.1,0.2,0.3,0.3,0.5c6.4,10.8,4.6,21,2.5,25.3c-6.5,13.5-3.7,29.2-3.4,30.9c0.7,0.6,3.2,2.5,10.1,2.5
				C36.7,63.4,38.9,61.4,39.3,60.9"/>
		</g>
		<g>
			<path class="st2" d="M39,2.5c0,0-3.6,0.7-10,0.7s-9.8-0.8-9.8-0.8s0.7-1,9.8-1S39,2.4,39,2.5z"/>
		</g>
	</g>
</g>
<g id="bottle_copy" class="st0">
	<g class="st1">
		<g>
			<path class="st2" d="M29,64.4c-7.1,0-9.9-1.8-10.8-2.6c-0.2-0.2-0.3-0.4-0.4-0.7c-0.3-1.8-3.2-17.8,3.5-31.6
				c0.2-0.5,5.3-11.2-2.5-24.3c-0.1-0.2-0.2-0.3-0.3-0.5c-0.3-0.4-0.6-0.8-0.3-1.6c0.1-0.1,0.2-0.2,0.3-0.3c0.1-0.1,0.3,0,0.4,0
				c0,0,1.9,0.9,9.9,0.9c8,0,9.7-0.6,9.9-0.7C38.9,3,39,2.9,39.2,2.9c0.2,0,0.3,0,0.4,0.2c0.2,0.2,0.4,0.9-0.1,1.7
				c-0.1,0.1-7.9,11.6-2.7,24.6l0.1,0.4c1.6,4,5.9,14.7,3.4,31.3c0,0,0,0,0,0c0,0.2-0.1,0.4-0.3,0.6C39.5,62.3,36.9,64.4,29,64.4z
				 M39.3,60.9c2.4-16.3-1.8-26.8-3.4-30.7l-0.1-0.4c-5.3-13.3,2.5-25.1,2.8-25.6c-1.9,0.5-6.1,0.6-9.6,0.6c-5.8,0-8.5-0.4-9.6-0.7
				c0,0,0.1,0.1,0.1,0.2c0.1,0.1,0.2,0.3,0.3,0.5c6.4,10.8,4.6,21,2.5,25.3c-6.5,13.5-3.7,29.2-3.4,30.9c0.7,0.6,3.2,2.5,10.1,2.5
				C36.7,63.4,38.9,61.4,39.3,60.9"/>
		</g>
		<g>
			<path class="st2" d="M39,2.5c0,0-3.6,0.7-10,0.7s-9.8-0.8-9.8-0.8s0.7-1,9.8-1S39,2.4,39,2.5z"/>
		</g>
	</g>
</g>
<g id="Layer_2">
	<path class="st3" d="M43.8,5.3c-3.6,7.7-3.2,18-0.7,27.3c0,0.1,0,0.1,0.1,0.2c6.9,18.6,3.2,32.7,3.2,32.7
		c-0.6,4.6-22.1,5.5-23.8,0.3c-3.2-12.6,1-27.9,2.5-32.7c4.7-12.7,1.6-23.1-0.5-27.8C24,4,24.9,2.7,26.2,2.7l15.9,0
		C43.5,2.7,44.4,4.1,43.8,5.3z"/>
	<path class="st3" d="M39.9,46.1c0,0,2.6,5.7,0.9,14.3"/>
</g>
</svg>
