<?xml version="1.0" encoding="utf-8"?>
<!-- Generator: Adobe Illustrator 20.1.0, SVG Export Plug-In . SVG Version: 6.00 Build 0)  -->
<svg version="1.1" id="Layer_1" xmlns="http://www.w3.org/2000/svg" xmlns:xlink="http://www.w3.org/1999/xlink" x="0px" y="0px"
	 viewBox="0 0 72 72" style="enable-background:new 0 0 72 72;" xml:space="preserve">
<style type="text/css">
	.st0{fill:#4D4D4D;}
</style>
<g>
	<path class="st0" d="M31.5,24.6c-1.6-1.7-3.2-3.3-4.9-5c-2.7-2.7-5.3-5.5-8-8.2c-1.3-1.3-2.1-2.8-1.5-4.7c0.9-2.9,4.7-3.9,6.8-1.6
		c3.1,3.4,6,6.9,9,10.4c1.7,2,3.4,4.1,5.2,6.1c0.2,0.3,0.8,0.4,1.1,0.4c5.3-0.6,10.4-0.5,15.3,1.9c1.6,0.8,3.2,1.9,4.6,3.1
		c1.7,1.5,2.6,3.4,2.5,5.8c-0.1,5.3-0.1,10.5-0.1,15.8c0,0.4,0.2,0.8,0.5,1.1c3.1,3.6,6.2,7.3,9.2,10.9c0.8,1,0.9,1.9,0.1,2.7
		c-0.8,0.8-1.9,0.7-2.8-0.2c-2.6-2.6-5.2-5.3-7.8-8c-0.5-0.5-1-1.1-1.5-1.6c-0.6,0.5-1.2,0.9-1.6,1.3c-0.5,0.5-0.9,0.4-1.5,0.1
		c-5.3-3.3-10.7-6.6-16-10c-4.5-2.8-8.9-5.5-13.4-8.3c-0.5-0.3-0.8-0.7-0.7-1.3c0.1-1.2,0-2.4,0.1-3.6c0.4-2.8,2.2-4.7,4.4-6.2
		c0.2-0.2,0.5-0.3,0.7-0.5C31.4,24.8,31.4,24.8,31.5,24.6z M43.9,25.3c-2,0.3-4,0.4-5.9,0.9c-2.7,0.6-5.2,1.7-7,3.9
		c-1.6,2-1.6,4.2,0.3,5.9c1,1,2.3,1.9,3.6,2.5c3.9,1.9,8.1,2.1,12.4,1.6c3.1-0.4,5.9-1.3,8.4-3.3c3-2.4,3-5.6-0.1-8
		C52.1,26.3,48.2,25.5,43.9,25.3z"/>
	<path class="st0" d="M4.2,25.7c0.7,0.2,1.4,0.3,1.9,0.7C12.1,30,18,33.7,23.8,37.3c14.6,9,29.2,18.1,43.8,27.2
		c1.5,0.9,1.9,1.8,1.3,2.8c-0.6,1.1-1.6,1.2-3.1,0.4C60.5,64.8,55.3,62,50,59.2c-1-0.6-2-0.7-3.2-0.6c-4.5,0.5-8.8,0-13-1.7
		c-2.4-1-4.5-2.3-6.1-4.4c-1.1-1.5-1.8-3.1-1.7-5c0-0.8-0.2-1.2-0.9-1.6c-7.5-4-14.9-8-22.4-12C0.5,32.7-0.3,31,0.2,29
		C0.7,27.1,2.2,25.9,4.2,25.7z"/>
	<path class="st0" d="M43.4,37.2c-1.9,0.1-4-0.4-5.9-1.5c-1.9-1.1-2.9-2.8-2.3-4.4c0.4-0.9,1.1-1.8,1.9-2.4
		c3.5-2.5,9.6-2.4,13.2,0.1c2.5,1.8,2.6,4.5,0.1,6.3C48.6,36.6,46.4,37.2,43.4,37.2z"/>
</g>
</svg>
